<svg width="30" height="37" viewBox="0 0 30 37" fill="none" xmlns="http://www.w3.org/2000/svg">
<path d="M18.8334 20.3878H18.4928C13.5899 20.3822 8.88945 18.4366 5.4226 14.9777C1.95575 11.5189 0.00560923 6.82922 0 1.93764L0 0.00139618H18.8334C21.5434 0.00139618 24.1425 1.07549 26.0588 2.98737C27.9751 4.89925 29.0516 7.49232 29.0516 10.1961C29.0516 12.8999 27.9751 15.493 26.0588 17.4049C24.1425 19.3168 21.5434 20.3909 18.8334 20.3909V20.3878ZM4.01161 3.87389C4.48596 7.37137 6.21431 10.579 8.87672 12.9029C11.5391 15.2268 14.9553 16.5096 18.4928 16.5138H18.8334C19.6735 16.5268 20.5078 16.3729 21.2877 16.0611C22.0676 15.7493 22.7776 15.2859 23.3763 14.6977C23.975 14.1096 24.4504 13.4085 24.775 12.6353C25.0995 11.862 25.2666 11.0321 25.2666 10.1939C25.2666 9.35559 25.0995 8.5257 24.775 7.75248C24.4504 6.97926 23.975 6.27818 23.3763 5.69003C22.7776 5.10188 22.0676 4.63841 21.2877 4.32662C20.5078 4.01482 19.6735 3.86093 18.8334 3.87389H4.01161Z" fill="#5158A6"/>
<path d="M18.8334 36.9018H0V34.964C0.00560923 30.0725 1.95575 25.3828 5.4226 21.924C8.88945 18.4651 13.5899 16.5194 18.4928 16.5138H18.8334C21.5434 16.5138 24.1425 17.5879 26.0588 19.4998C27.9751 21.4117 29.0516 24.0048 29.0516 26.7086C29.0516 29.4124 27.9751 32.0055 26.0588 33.9173C24.1425 35.8292 21.5434 36.9033 18.8334 36.9033V36.9018ZM4.01161 33.0278H18.8334C19.6735 33.0408 20.5078 32.8869 21.2877 32.5751C22.0676 32.2633 22.7776 31.7998 23.3763 31.2117C23.975 30.6235 24.4504 29.9224 24.775 29.1492C25.0995 28.376 25.2666 27.5461 25.2666 26.7078C25.2666 25.8696 25.0995 25.0396 24.775 24.2664C24.4504 23.4932 23.975 22.7921 23.3763 22.204C22.7776 21.6158 22.0676 21.1524 21.2877 20.8406C20.5078 20.5288 19.6735 20.3749 18.8334 20.3878H18.4928C14.9553 20.3921 11.5391 21.6749 8.87672 23.9988C6.21431 26.3227 4.48596 29.5303 4.01161 33.0278Z" fill="#5158A6"/>
<path d="M2.59317 36.9018C2.34944 36.9018 2.10875 36.9018 1.86653 36.8852L2.01792 33.0142C2.20866 33.0142 2.3994 33.0278 2.59317 33.0278C4.52925 33.0556 6.45157 32.6992 8.24836 31.9792C10.0452 31.2592 11.6806 30.1901 13.0596 28.834C14.4385 27.4778 15.5336 25.8617 16.281 24.0796C17.0284 22.2975 17.4133 20.3849 17.4133 18.4531C17.4133 16.5213 17.0284 14.6087 16.281 12.8266C15.5336 11.0445 14.4385 9.42841 13.0596 8.07226C11.6806 6.71612 10.0452 5.64697 8.24836 4.92701C6.45157 4.20704 4.52925 3.85061 2.59317 3.87842C2.3994 3.87842 2.20866 3.87841 2.0164 3.8905L1.86502 0.019517C2.10572 0.0104551 2.34641 0.00441742 2.59014 0.00441742C7.49119 0.0108056 12.1898 1.95546 15.6562 5.4122C19.1226 8.86894 21.0741 13.5558 21.0829 18.4456C21.0799 28.6282 12.7842 36.9018 2.59317 36.9018Z" fill="#5158A6"/>
</svg>
