<svg width="22" height="20" viewBox="0 0 22 20" fill="none" xmlns="http://www.w3.org/2000/svg">
<path fill-rule="evenodd" clip-rule="evenodd" d="M15.2736 0C18.7232 0 21.5292 2.80603 21.5292 6.25671V13.7433C21.5292 17.1929 18.7232 20 15.2736 20H6.25672C2.80707 20 0 17.1929 0 13.7433V6.25671C0 2.80603 2.80707 0 6.25672 0H15.2736ZM15.2736 1.5647H6.25672C3.66974 1.5647 1.5647 3.66974 1.5647 6.25671V13.7433C1.5647 16.3303 3.66974 18.4353 6.25672 18.4353H15.2736C17.8605 18.4353 19.9645 16.3303 19.9645 13.7433V13.4512L16.5244 13.4518C14.5456 13.4518 12.935 11.8423 12.9339 9.8645C12.9339 7.88463 14.5445 6.27403 16.5244 6.27299L19.9645 6.27236V6.25671C19.9645 3.66974 17.8605 1.5647 15.2736 1.5647ZM19.9645 7.83706L16.5244 7.83769C15.4072 7.83873 14.4986 8.7473 14.4986 9.86345C14.4986 10.9786 15.4082 11.8871 16.5244 11.8871L19.9645 11.8865V7.83706ZM17.0017 9.01643C17.4336 9.01643 17.7841 9.36692 17.7841 9.79878C17.7841 10.2306 17.4336 10.5811 17.0017 10.5811H16.6763C16.2444 10.5811 15.8939 10.2306 15.8939 9.79878C15.8939 9.36692 16.2444 9.01643 16.6763 9.01643H17.0017ZM11.1459 4.73384C11.5777 4.73384 11.9282 5.08434 11.9282 5.51619C11.9282 5.94805 11.5777 6.29854 11.1459 6.29854H5.514C5.08215 6.29854 4.73165 5.94805 4.73165 5.51619C4.73165 5.08434 5.08215 4.73384 5.514 4.73384H11.1459Z" fill="currentColor"/>
</svg>
