<svg width="21" height="21" viewBox="0 0 21 21" fill="none" xmlns="http://www.w3.org/2000/svg">
<path d="M14.7078 0C18.1847 0 20.5129 2.44 20.5129 6.07077V14.4503C20.5129 18.0718 18.1847 20.5128 14.7078 20.5128H5.81551C2.33858 20.5128 0.00012207 18.0718 0.00012207 14.4503V6.07077C0.00012207 2.44 2.33858 0 5.81551 0H14.7078ZM9.89756 5.04513C9.47705 5.04513 9.12833 5.39487 9.12833 5.81436V10.9949C9.12833 11.2615 9.27192 11.5179 9.50782 11.6513L13.5283 14.0513C13.6514 14.1333 13.795 14.1641 13.9283 14.1641C14.1847 14.1641 14.4411 14.0308 14.5847 13.7846C14.8104 13.4246 14.6873 12.9528 14.3181 12.7282L10.6668 10.5538V5.81436C10.6668 5.39487 10.3283 5.04513 9.89756 5.04513Z" fill="white"/>
</svg>
