<svg width="23" height="20" viewBox="0 0 23 20" fill="none" xmlns="http://www.w3.org/2000/svg">
<path d="M16.5989 0C18.0889 0 19.5222 0.588889 20.5767 1.64556C21.6322 2.7 22.2222 4.12222 22.2222 5.61111V14.3889C22.2222 17.4889 19.7 20 16.5989 20H5.62222C2.52111 20 0 17.4889 0 14.3889V5.61111C0 2.51111 2.51 0 5.62222 0H16.5989ZM17.8556 5.77778C17.6222 5.76556 17.4 5.84444 17.2322 6L12.2222 10C11.5778 10.5344 10.6544 10.5344 10 10L5 6C4.65444 5.74444 4.17667 5.77778 3.88889 6.07778C3.58889 6.37778 3.55556 6.85556 3.81 7.18889L3.95556 7.33333L9.01111 11.2778C9.63333 11.7667 10.3878 12.0333 11.1778 12.0333C11.9656 12.0333 12.7333 11.7667 13.3544 11.2778L18.3667 7.26667L18.4556 7.17778C18.7211 6.85556 18.7211 6.38889 18.4433 6.06667C18.2889 5.90111 18.0767 5.8 17.8556 5.77778Z" fill="#F1F6FB"/>
</svg>
