<svg width="19" height="20" viewBox="0 0 19 20" fill="none" xmlns="http://www.w3.org/2000/svg">
<path fill-rule="evenodd" clip-rule="evenodd" d="M10.8597 13.2909C11.9756 13.2909 12.8839 14.1958 12.8839 15.3081V18.1688C12.8839 18.4078 13.0748 18.5994 13.3195 18.605H15.086C16.4781 18.605 17.6098 17.4834 17.6098 16.1051V7.99177C17.6033 7.51747 17.378 7.07106 16.9916 6.77439L10.881 1.88442C10.0607 1.23249 8.91332 1.23249 8.09029 1.88628L2.02141 6.77253C1.6201 7.0785 1.39488 7.52491 1.39024 8.00758V16.1051C1.39024 17.4834 2.5219 18.605 3.914 18.605H5.69722C5.94839 18.605 6.15229 18.405 6.15229 18.1595C6.15229 18.1056 6.15878 18.0516 6.1699 18.0005V15.3081C6.1699 14.2023 7.07263 13.2984 8.1802 13.2909H10.8597ZM15.086 20H13.3028C12.2814 19.9758 11.4936 19.1714 11.4936 18.1688V15.3081C11.4936 14.965 11.2091 14.6859 10.8597 14.6859H8.18483C7.84283 14.6878 7.56015 14.9677 7.56015 15.3081V18.1595C7.56015 18.2293 7.55088 18.2962 7.53141 18.3595C7.43132 19.2802 6.64722 20 5.69722 20H3.914C1.75541 20 0 18.2525 0 16.1051V8.00107C0.00926829 7.07664 0.433756 6.23034 1.16688 5.67327L7.22371 0.795387C8.55741 -0.264819 10.4157 -0.264819 11.7466 0.793527L17.847 5.67606C18.5635 6.22383 18.988 7.06827 19 7.98154V16.1051C19 18.2525 17.2446 20 15.086 20Z" fill="currentColor"/>
</svg>
