<svg width="22" height="12" viewBox="0 0 22 12" fill="none" xmlns="http://www.w3.org/2000/svg">
<path d="M5.58333 11.1667C6.86968 11.1649 8.1161 10.7197 9.11243 9.90605C10.1088 9.09239 10.794 7.96007 11.0528 6.69999H13.4V8.93332H15.6333V6.69999H17.8667V10.05H20.1V6.69999H21.2166V4.46666H11.0528C10.794 3.20659 10.1088 2.07427 9.11243 1.2606C8.1161 0.446944 6.86968 0.00171939 5.58333 0C2.50468 0 0 2.50468 0 5.58333C0 8.66197 2.50468 11.1667 5.58333 11.1667ZM5.58333 2.23333C7.43029 2.23333 8.93333 3.73636 8.93333 5.58333C8.93333 7.43029 7.43029 8.93332 5.58333 8.93332C3.73636 8.93332 2.23333 7.43029 2.23333 5.58333C2.23333 3.73636 3.73636 2.23333 5.58333 2.23333Z" fill="#F1F6FB"/>
</svg>
