<svg width="21" height="21" viewBox="0 0 21 21" fill="none" xmlns="http://www.w3.org/2000/svg">
<path fill-rule="evenodd" clip-rule="evenodd" d="M2.32389 2.2403C1.6147 2.88149 1.2 3.84133 1.2 5.14118V14.8535C1.2 16.1793 1.61614 17.1397 2.32289 17.7758C3.03894 18.4202 4.1338 18.8041 5.62486 18.8041H14.3802C15.8991 18.8041 16.9915 18.4192 17.6992 17.7773C18.3979 17.1436 18.8041 16.1842 18.8041 14.8535V5.14118C18.8041 3.83635 18.3993 2.87757 17.6982 2.23874C16.989 1.59259 15.8957 1.2 14.3802 1.2H5.62486C4.13713 1.2 3.04148 1.59153 2.32389 2.2403ZM1.51912 1.35017C2.52002 0.445251 3.9368 0 5.62486 0H14.3802C16.0917 0 17.5104 0.444192 18.5064 1.35173C19.5104 2.26658 20.0041 3.57839 20.0041 5.14118V14.8535C20.0041 16.4373 19.5118 17.7533 18.5054 18.6662C17.5078 19.571 16.0884 20.0041 14.3802 20.0041H5.62486C3.94013 20.0041 2.52255 19.5699 1.52013 18.6677C0.508389 17.7572 0 16.4423 0 14.8535V5.14118C0 3.57341 0.509837 2.26266 1.51912 1.35017ZM5.90691 4.98139V4.97199H9.02943C9.47968 4.97199 9.84532 5.30106 9.84532 5.70441C9.84532 6.11904 9.47968 6.44811 9.02943 6.44811H5.90691C5.45666 6.44811 5.09207 6.11904 5.09207 5.71475C5.09207 5.31047 5.45666 4.98139 5.90691 4.98139ZM5.90691 10.6978H14.0971C14.5463 10.6978 14.912 10.3688 14.912 9.96447C14.912 9.56019 14.5463 9.23018 14.0971 9.23018H5.90691C5.45666 9.23018 5.09207 9.56019 5.09207 9.96447C5.09207 10.3688 5.45666 10.6978 5.90691 10.6978ZM5.90692 14.9946H14.0971C14.514 14.957 14.8284 14.6364 14.8284 14.2612C14.8284 13.8757 14.514 13.5561 14.0971 13.5185H5.90692C5.59352 13.4903 5.29057 13.6219 5.12342 13.8663C4.95627 14.1014 4.95627 14.4117 5.12342 14.6561C5.29057 14.8912 5.59352 15.0322 5.90692 14.9946Z" fill="currentColor"/>
</svg>
