<svg width="136" height="37" viewBox="0 0 136 37" fill="none" xmlns="http://www.w3.org/2000/svg">
<path d="M18.8349 20.3865H18.4928C13.5899 20.3809 8.88945 18.4352 5.4226 14.9763C1.95575 11.5175 0.00560923 6.82783 0 1.93625V0H18.8349C21.5449 0 24.144 1.07409 26.0603 2.98597C27.9766 4.89785 29.0531 7.49092 29.0531 10.1947C29.0531 12.8985 27.9766 15.4916 26.0603 17.4035C24.144 19.3154 21.5449 20.3895 18.8349 20.3895V20.3865ZM4.01161 3.87249C4.48596 7.36997 6.21431 10.5775 8.87672 12.9014C11.5391 15.2253 14.9553 16.5082 18.4928 16.5125H18.8349C20.498 16.4868 22.0842 15.8097 23.2512 14.6272C24.4182 13.4448 25.0723 11.8519 25.0723 10.1925C25.0723 8.53303 24.4182 6.94015 23.2512 5.75771C22.0842 4.57528 20.498 3.89814 18.8349 3.87249H4.01161Z" fill="#F491A3"/>
<path d="M18.8349 36.9004H0V34.9627C0.00560923 30.0711 1.95575 25.3814 5.4226 21.9226C8.88945 18.4637 13.5899 16.518 18.4928 16.5125H18.8349C21.5449 16.5125 24.144 17.5865 26.0603 19.4984C27.9766 21.4103 29.0531 24.0034 29.0531 26.7072C29.0531 29.411 27.9766 32.0041 26.0603 33.9159C24.144 35.8278 21.5449 36.9019 18.8349 36.9019V36.9004ZM4.01161 33.0219H18.8349C20.498 32.9962 22.0842 32.3191 23.2512 31.1367C24.4182 29.9542 25.0723 28.3613 25.0723 26.7019C25.0723 25.0425 24.4182 23.4496 23.2512 22.2671C22.0842 21.0847 20.498 20.4076 18.8349 20.3819H18.4928C14.9553 20.3862 11.5391 21.669 8.87672 23.9929C6.21431 26.3168 4.48596 29.5244 4.01161 33.0219Z" fill="#F491A3"/>
<path d="M2.59466 36.8989C2.34942 36.8989 2.10873 36.8989 1.86803 36.8838L2.01941 33.0128C2.21015 33.0128 2.40241 33.0264 2.59618 33.0264C4.53226 33.0542 6.45458 32.6978 8.25137 31.9778C10.0482 31.2578 11.6836 30.1887 13.0626 28.8326C14.4416 27.4764 15.5366 25.8603 16.284 24.0782C17.0314 22.2961 17.4163 20.3836 17.4163 18.4517C17.4163 16.5199 17.0314 14.6073 16.284 12.8252C15.5366 11.0431 14.4416 9.427 13.0626 8.07086C11.6836 6.71472 10.0482 5.64559 8.25137 4.92562C6.45458 4.20565 4.53226 3.84921 2.59618 3.87702C2.40241 3.87702 2.21015 3.87702 2.0179 3.8891L1.86652 0.0181255C2.10721 0.00906349 2.34943 0.00302124 2.59315 0.00302124C7.49354 0.0090078 12.1917 1.95292 15.6581 5.40877C19.1245 8.86462 21.0763 13.5505 21.0859 18.4396C21.0799 28.6268 12.7842 36.8989 2.59466 36.8989Z" fill="#F491A3"/>
<path d="M43.009 5.13362H47.3703V14.4675C48.5026 13.4102 50.0952 12.7729 51.9314 12.7729C56.3926 12.7729 59.7215 16.3977 59.7215 21.1431C59.7215 25.8886 56.3911 29.4802 51.9314 29.4802C50.0679 29.4802 48.4693 28.8156 47.337 27.7191V29.1479H43.009V5.13362ZM55.2603 21.1099C55.2603 18.5846 53.5633 16.7919 51.173 16.7919C48.7827 16.7919 47.1114 18.5846 47.1114 21.1099C47.1114 23.6669 48.7766 25.4612 51.1987 25.4612C53.5663 25.4612 55.2603 23.6669 55.2603 21.1099Z" fill="#5158A6"/>
<path d="M61.5896 21.1431C61.5896 16.3931 64.92 12.7729 69.2798 12.7729C71.2099 12.7729 72.8418 13.4706 73.9726 14.6321V13.1051H78.3006V29.1479H73.9726V27.6194C72.8418 28.7824 71.2099 29.4802 69.3131 29.4802C64.92 29.4802 61.5896 25.8931 61.5896 21.1431ZM74.2057 21.1099C74.2057 18.5846 72.5405 16.7919 70.1184 16.7919C67.7221 16.7919 66.0569 18.5846 66.0569 21.1099C66.0569 23.6669 67.7221 25.4612 70.1184 25.4612C72.539 25.4612 74.2027 23.6669 74.2027 21.1099H74.2057Z" fill="#5158A6"/>
<path d="M82.1593 13.1051H86.5206V14.4992C87.6196 13.4042 89.2182 12.7729 91.0151 12.7729C93.08 12.7729 94.8436 13.6368 95.9093 15.197C97.14 13.6368 99.005 12.7729 101.168 12.7729C104.73 12.7729 107.495 15.1305 107.495 18.9834V29.1479H103.133V19.6811C103.133 17.8219 101.801 16.7254 100.071 16.7254C98.3405 16.7254 97.0129 17.8219 97.0129 19.6811V29.1479H92.6515V19.6811C92.6515 17.8219 91.3194 16.7254 89.5876 16.7254C87.8558 16.7254 86.5251 17.8219 86.5251 19.6811V29.1479H82.1638L82.1593 13.1051Z" fill="#5158A6"/>
<path d="M111.023 5.13362H115.385V14.4675C116.517 13.4102 118.109 12.7729 119.946 12.7729C124.407 12.7729 127.736 16.3977 127.736 21.1431C127.736 25.8886 124.405 29.4802 119.946 29.4802C118.081 29.4802 116.484 28.8156 115.351 27.7191V29.1479H111.023V5.13362ZM123.275 21.1099C123.275 18.5846 121.576 16.7919 119.187 16.7919C116.798 16.7919 115.126 18.5846 115.126 21.1099C115.126 23.6669 116.791 25.4612 119.221 25.4612C121.576 25.4612 123.275 23.6669 123.275 21.1099Z" fill="#5158A6"/>
<path d="M130.332 8.02288C130.332 6.62884 131.364 5.53234 132.795 5.53234C134.225 5.53234 135.259 6.62884 135.259 8.02288C135.259 9.41692 134.227 10.5149 132.795 10.5149C131.363 10.5149 130.332 9.41843 130.332 8.02288ZM130.598 13.1051H134.988V29.1479H130.598V13.1051Z" fill="#5158A6"/>
</svg>
