<svg width="136" height="38" viewBox="0 0 136 38" fill="none" xmlns="http://www.w3.org/2000/svg">
<path d="M18.8349 20.9779H18.4928C13.5899 20.9723 8.88945 19.0267 5.4226 15.5678C1.95575 12.1089 0.00560923 7.41932 0 2.52774V0.591492H18.8349C21.5449 0.591492 24.144 1.66558 26.0603 3.57747C27.9766 5.48935 29.0531 8.08242 29.0531 10.7862C29.0531 13.49 27.9766 16.0831 26.0603 17.995C24.144 19.9069 21.5449 20.981 18.8349 20.981V20.9779ZM4.01161 4.46549C4.48596 7.96296 6.21431 11.1706 8.87672 13.4945C11.5391 15.8183 14.9553 17.1012 18.4928 17.1055H18.8349C20.498 17.0798 22.0842 16.4027 23.2512 15.2202C24.4182 14.0378 25.0723 12.4449 25.0723 10.7855C25.0723 9.12604 24.4182 7.53314 23.2512 6.35071C22.0842 5.16827 20.498 4.49114 18.8349 4.46549H4.01161Z" fill="#F491A3"/>
<path d="M18.8349 37.4919H0V35.5557C0.00560923 30.6641 1.95575 25.9745 5.4226 22.5156C8.88945 19.0567 13.5899 17.1111 18.4928 17.1055H18.8349C21.5449 17.1055 24.144 18.1795 26.0603 20.0914C27.9766 22.0033 29.0531 24.5964 29.0531 27.3002C29.0531 30.004 27.9766 32.5971 26.0603 34.509C24.144 36.4209 21.5449 37.4949 18.8349 37.4949V37.4919ZM4.01161 33.6179H18.8349C20.498 33.5923 22.0842 32.9151 23.2512 31.7327C24.4182 30.5503 25.0723 28.9574 25.0723 27.2979C25.0723 25.6385 24.4182 24.0456 23.2512 22.8632C22.0842 21.6807 20.498 21.0036 18.8349 20.978H18.4928C14.9553 20.9822 11.5391 22.2651 8.87672 24.589C6.21431 26.9129 4.48596 30.1204 4.01161 33.6179Z" fill="#F491A3"/>
<path d="M2.59466 37.4919C2.34942 37.4919 2.10873 37.4919 1.86803 37.4768L2.01941 33.6058C2.21015 33.6058 2.40241 33.6179 2.59618 33.6179C4.53226 33.6457 6.45458 33.2893 8.25137 32.5693C10.0482 31.8493 11.6836 30.7802 13.0626 29.4241C14.4416 28.0679 15.5366 26.4518 16.284 24.6697C17.0314 22.8876 17.4163 20.975 17.4163 19.0432C17.4163 17.1114 17.0314 15.1988 16.284 13.4167C15.5366 11.6346 14.4416 10.0185 13.0626 8.66236C11.6836 7.30622 10.0482 6.23709 8.25137 5.51712C6.45458 4.79716 4.53226 4.44071 2.59618 4.46852C2.40241 4.46852 2.21015 4.46852 2.0179 4.48211L1.86652 0.611138C2.10721 0.602076 2.34943 0.596039 2.59315 0.596039C7.49276 0.602022 12.1902 2.54531 15.6565 6.00018C19.1227 9.45505 21.0751 14.1398 21.0859 19.0281C21.0799 29.2198 12.7842 37.4919 2.59466 37.4919Z" fill="#F491A3"/>
<path d="M43.009 5.72513H47.3703V15.059C48.5026 14.0017 50.0952 13.3659 51.9314 13.3659C56.3926 13.3659 59.7215 16.9907 59.7215 21.7346C59.7215 26.4786 56.3911 30.0717 51.9314 30.0717C50.0679 30.0717 48.4693 29.4071 47.337 28.3121V29.7394H43.009V5.72513ZM55.2603 21.7014C55.2603 19.1776 53.5633 17.3834 51.173 17.3834C48.7827 17.3834 47.1114 19.1776 47.1114 21.7014C47.1114 24.2599 48.7766 26.0527 51.1987 26.0527C53.5663 26.0527 55.2603 24.2599 55.2603 21.7014Z" fill="white"/>
<path d="M61.5896 21.7346C61.5896 16.9861 64.92 13.3659 69.2798 13.3659C71.2099 13.3659 72.8418 14.0621 73.9726 15.2251V13.6966H78.3006V29.7394H73.9726V28.2124C72.8418 29.3739 71.2099 30.0716 69.3131 30.0716C64.92 30.0716 61.5896 26.4846 61.5896 21.7346ZM74.2057 21.7014C74.2057 19.1776 72.5405 17.3834 70.1184 17.3834C67.7221 17.3834 66.0569 19.1776 66.0569 21.7014C66.0569 24.2599 67.7221 26.0527 70.1184 26.0527C72.539 26.0527 74.2027 24.2599 74.2027 21.7014H74.2057Z" fill="white"/>
<path d="M82.1593 13.6966H86.5206V15.0922C87.6196 13.9957 89.2182 13.3659 91.0151 13.3659C93.08 13.3659 94.8436 14.2283 95.9093 15.7824C97.14 14.2207 99.005 13.3659 101.168 13.3659C104.73 13.3659 107.495 15.7235 107.495 19.5764V29.7394H103.133V20.2741C103.133 18.4134 101.801 17.3169 100.071 17.3169C98.3405 17.3169 97.0083 18.4134 97.0083 20.2741V29.7394H92.647V20.2741C92.647 18.4134 91.3149 17.3169 89.5831 17.3169C87.8513 17.3169 86.5206 18.4134 86.5206 20.2741V29.7394H82.1593V13.6966Z" fill="white"/>
<path d="M111.023 5.72513H115.385V15.059C116.517 14.0017 118.109 13.3659 119.946 13.3659C124.407 13.3659 127.736 16.9907 127.736 21.7346C127.736 26.4786 124.405 30.0717 119.946 30.0717C118.081 30.0717 116.484 29.4071 115.351 28.3121V29.7394H111.023V5.72513ZM123.275 21.7014C123.275 19.1776 121.576 17.3834 119.187 17.3834C116.798 17.3834 115.126 19.1776 115.126 21.7014C115.126 24.2599 116.791 26.0527 119.221 26.0527C121.576 26.0527 123.275 24.2599 123.275 21.7014Z" fill="white"/>
<path d="M130.332 8.6159C130.332 7.22036 131.364 6.12535 132.795 6.12535C134.225 6.12535 135.259 7.22036 135.259 8.6159C135.259 10.0114 134.227 11.1064 132.795 11.1064C131.363 11.1064 130.332 10.0099 130.332 8.6159ZM130.598 13.6966H134.988V29.7394H130.598V13.6966Z" fill="white"/>
</svg>
