<svg width="50" height="50" viewBox="0 0 50 50" fill="none" xmlns="http://www.w3.org/2000/svg">
<rect width="50" height="50" rx="25" fill="#FFE9CE"/>
<path d="M30.856 16C33.14 16 34.999 17.842 34.999 20.1051L35 22.7825C35 22.9786 34.921 23.1689 34.781 23.3076C34.64 23.4473 34.45 23.5256 34.25 23.5256C33.429 23.5256 32.761 24.1875 32.761 25.001C32.761 25.8145 33.429 26.4764 34.25 26.4764C34.664 26.4764 35 26.8093 35 27.2195V29.8958C35 32.159 33.142 34 30.858 34H19.143C16.859 34 15 32.159 15 29.8958V27.2195C15 26.8093 15.336 26.4764 15.75 26.4764C16.572 26.4764 17.24 25.8145 17.24 25.001C17.24 24.2083 16.599 23.6118 15.75 23.6118C15.551 23.6118 15.361 23.5335 15.22 23.3938C15.079 23.2541 15 23.0648 15 22.8687L15.002 20.1051C15.002 17.842 16.86 16 19.144 16H30.856ZM25.002 21.1535C24.718 21.1535 24.464 21.31 24.337 21.5617L23.608 23.0252L21.982 23.26C21.701 23.2997 21.471 23.4899 21.382 23.7575C21.294 24.025 21.365 24.3143 21.569 24.5105L22.748 25.648L22.47 27.2562C22.422 27.5336 22.535 27.8091 22.765 27.9746C22.895 28.0667 23.046 28.1143 23.199 28.1143C23.316 28.1143 23.434 28.0855 23.542 28.0291L25 27.2701L26.455 28.0271C26.707 28.1608 27.006 28.14 27.235 27.9736C27.466 27.8091 27.579 27.5336 27.531 27.2562L27.252 25.648L28.431 24.5105C28.636 24.3143 28.707 24.025 28.618 23.7575C28.53 23.4899 28.3 23.2997 28.022 23.261L26.393 23.0252L25.664 21.5627C25.539 21.311 25.285 21.1545 25.002 21.1535Z" fill="#2E3E5C"/>
</svg>
