<svg width="48" height="45" viewBox="0 0 48 45" fill="none" xmlns="http://www.w3.org/2000/svg">
<path d="M35.1562 28.125C38.8969 28.125 42.3281 26.7975 45 24.5897V37.9688C45 39.8336 44.2592 41.622 42.9406 42.9406C41.622 44.2592 39.8335 45 37.9687 45H7.03125C5.16645 45 3.37802 44.2592 2.05941 42.9406C0.74079 41.622 0 39.8336 0 37.9688V17.9241L21.7884 30.7434C22.0045 30.8705 22.2507 30.9376 22.5014 30.9376C22.7521 30.9376 22.9983 30.8705 23.2144 30.7434L29.4862 27.0534C31.292 27.764 33.2157 28.1276 35.1562 28.125ZM7.03125 8.4375H20.2697C19.89 9.77906 19.6875 11.1938 19.6875 12.6562C19.6875 18.0169 22.4156 22.7391 26.5556 25.515L22.5 27.9L0.0421878 14.6897C0.233883 12.9702 1.05279 11.3818 2.34224 10.2283C3.63168 9.07483 5.30115 8.43723 7.03125 8.4375ZM35.1562 25.3125C38.5129 25.3125 41.7321 23.9791 44.1056 21.6056C46.4791 19.2321 47.8125 16.0129 47.8125 12.6562C47.8125 9.2996 46.4791 6.08044 44.1056 3.70693C41.7321 1.33342 38.5129 0 35.1562 0C31.7996 0 28.5804 1.33342 26.2069 3.70693C23.8334 6.08044 22.5 9.2996 22.5 12.6562C22.5 16.0129 23.8334 19.2321 26.2069 21.6056C28.5804 23.9791 31.7996 25.3125 35.1562 25.3125ZM41.7769 9.43313L33.3394 17.8706C33.2087 18.0016 33.0536 18.1055 32.8827 18.1764C32.7119 18.2473 32.5287 18.2838 32.3437 18.2838C32.1588 18.2838 31.9756 18.2473 31.8048 18.1764C31.6339 18.1055 31.4787 18.0016 31.3481 17.8706L28.5356 15.0581C28.2716 14.7941 28.1232 14.4359 28.1232 14.0625C28.1232 13.6891 28.2716 13.3309 28.5356 13.0669C28.7997 12.8028 29.1578 12.6545 29.5312 12.6545C29.9047 12.6545 30.2628 12.8028 30.5269 13.0669L32.3437 14.8866L39.7856 7.44187C40.0497 7.17782 40.4078 7.02947 40.7812 7.02947C41.1547 7.02947 41.5128 7.17782 41.7769 7.44187C42.0409 7.70593 42.1893 8.06407 42.1893 8.4375C42.1893 8.81093 42.0409 9.16907 41.7769 9.43313Z" fill="#FF92A4"/>
</svg>
