<svg width="50" height="50" viewBox="0 0 50 50" fill="none" xmlns="http://www.w3.org/2000/svg">
<rect width="50" height="50" rx="25" fill="#4E51BF"/>
<path d="M24.5487 26.6955L24.2344 26.3839C22.9336 25.0831 21.8239 23.8211 21.1656 22.9333L20.7854 22.3521C20.5868 22.0415 20.3704 21.6781 20.2991 21.4535C20.0383 20.6315 20.252 19.748 20.8392 19.1608L20.8903 19.1097C21.2858 18.7395 22.4259 18.2712 22.4375 18.2829C24.2745 17.5319 28.4095 16.6741 30.7307 16.6893L31.4165 16.705C31.5993 16.7123 31.8104 16.7262 31.9592 16.7527C32.4343 16.8189 32.8715 17.0517 33.2064 17.3866C33.5803 17.7605 33.8131 18.2228 33.8804 18.724L33.9077 19.4398L33.9099 19.5962C33.9979 21.7766 33.121 26.363 32.2597 28.3596L32.1266 28.658C31.9601 29.0107 31.7073 29.4855 31.4969 29.7163C31.2164 29.9968 30.8831 30.1997 30.499 30.3267C29.9998 30.4657 29.4609 30.436 28.9852 30.2418C28.6638 30.0998 27.8269 29.5444 27.8142 29.5318C26.9833 28.9589 25.8009 27.9262 24.5487 26.6955ZM17.3029 33.3029C16.562 32.562 16.5562 31.3663 17.29 30.6326L20.8488 27.652C21.4245 27.0764 22.3624 27.0809 22.9436 27.6622C23.5259 28.2444 23.5294 29.1814 22.9538 29.757L19.9733 33.3159C19.2395 34.0496 18.0438 34.0438 17.3029 33.3029Z" fill="white"/>
</svg>
